<?xml version="1.0" encoding="UTF-8"?>
<svg version="1.1" xmlns="http://www.w3.org/2000/svg" width="372" height="360">
<path d="M0 0 C0 3.99904969 -1.72586967 5.80200422 -4 9 C-3.278125 8.38125 -2.55625 7.7625 -1.8125 7.125 C4.10489533 2.65407908 9.77249778 2.25232736 17 3 C20.1875 4.5 20.1875 4.5 22 6 C20 8 20 8 18.01171875 8.16015625 C17.24472656 8.12792969 16.47773438 8.09570312 15.6875 8.0625 C12.29572229 7.98044086 9.30880011 8.1461161 6 9 C6.58007812 9.15855469 7.16015625 9.31710938 7.7578125 9.48046875 C13.23826217 11.11736873 17.02825805 12.82457897 21 17 C21 18.32 21 19.64 21 21 C21.99 21 22.98 21 24 21 C24.495 22.98 24.495 22.98 25 25 C26.65 25 28.3 25 30 25 C30.33 23.68 30.66 22.36 31 21 C34.63 21 38.26 21 42 21 C42.99 22.98 42.99 22.98 44 25 C44.99 25 45.98 25 47 25 C47.66 23.68 48.32 22.36 49 21 C52.63 21 56.26 21 60 21 C61.32 25.95 62.64 30.9 64 36 C66.31 36.33 68.62 36.66 71 37 C72.75 38.5 72.75 38.5 74 40 C75.485 40.495 75.485 40.495 77 41 C77.66 39.68 78.32 38.36 79 37 C83.62 37 88.24 37 93 37 C93.495 38.98 93.495 38.98 94 41 C95.94074861 40.72382467 95.94074861 40.72382467 98 40 C98.66 39.01 99.32 38.02 100 37 C103.1875 36.6875 103.1875 36.6875 107 37 C108.19625 37.0825 109.3925 37.165 110.625 37.25 C116.14110562 40.11020291 117.11013693 45.33041078 119 51 C119.32097656 51.92167969 119.64195312 52.84335938 119.97265625 53.79296875 C120.67664718 55.85255152 121.34290967 57.9249779 122 60 C125.96 60.66 129.92 61.32 134 62 C133.67 62.99 133.34 63.98 133 65 C123.6427562 65.80504563 114.2853029 66.60756734 104.92753601 67.4065094 C100.15568458 67.81431752 95.38433644 68.22748795 90.61328125 68.64453125 C88.51302937 68.82561991 86.41276961 69.00661715 84.3125 69.1875 C83.37212891 69.27112793 82.43175781 69.35475586 81.46289062 69.44091797 C76.28557531 69.88249017 71.19630567 70.07864025 66 70 C67.42684196 67.14631608 69.0118472 67.0393575 72 66 C86.09408905 61.52911562 101.34225746 61.57600229 116 61 C114.17778624 54.38757278 111.94776396 48.19479329 109 42 C106.12586875 41.66602213 106.12586875 41.66602213 103 42 C102.525625 42.66 102.05125 43.32 101.5625 44 C101.046875 44.66 100.53125 45.32 100 46 C94.04477612 46.52238806 94.04477612 46.52238806 91 45 C91 43.68 91 42.36 91 41 C87.7 41 84.4 41 81 41 C80.67 41.99 80.34 42.98 80 44 C75.98195309 44.84098656 72.98196457 45.05404945 69 44 C68.505 42.02 68.505 42.02 68 40 C65.36 40 62.72 40 60 40 C59.67 41.32 59.34 42.64 59 44 C57.56666979 44.39063507 56.12807321 44.76198474 54.6875 45.125 C53.88699219 45.33382812 53.08648437 45.54265625 52.26171875 45.7578125 C50 46 50 46 47 44 C47 43.01 47 42.02 47 41 C44.50494008 41.25675913 44.50494008 41.25675913 42 43 C38.58672971 49.98429678 38.01369625 58.39131517 37 66 C38.54107422 65.60167969 38.54107422 65.60167969 40.11328125 65.1953125 C43.73348959 64.26712144 47.36015201 63.36804121 50.9921875 62.48730469 C52.61097328 62.09441845 54.22770486 61.69307378 55.84375 61.2890625 C64.77180195 59.3395828 73.91473153 59.83053385 83 60 C83 60.66 83 61.32 83 62 C74.06038142 64.43925732 65.14742029 66.38319962 56 67.875 C44.5100992 69.75706666 33.31091411 72.51895916 22.06518555 75.51269531 C20 76 20 76 18 76 C18 75.01 18 74.02 18 73 C19.22782862 72.37237545 20.45733836 71.74803935 21.6875 71.125 C22.77998047 70.56039062 22.77998047 70.56039062 23.89453125 69.984375 C26 69 26 69 28.875 68.375 C31.21621354 67.17926706 31.21621354 67.17926706 31.74609375 64.65625 C32.26506896 62.10790277 32.68101591 59.58043849 33 57 C32.34 57 31.68 57 31 57 C30.34 58.32 29.68 59.64 29 61 C27.741875 61.04125 26.48375 61.0825 25.1875 61.125 C24.47980469 61.14820313 23.77210938 61.17140625 23.04296875 61.1953125 C21 61 21 61 18 59 C17.67 58.01 17.34 57.02 17 56 C14.98491642 55.26676204 14.98491642 55.26676204 13 55 C12.67 56.65 12.34 58.3 12 60 C7.05 60.495 7.05 60.495 2 61 C1.01 64.3 0.02 67.6 -1 71 C2.96 71.66 6.92 72.32 11 73 C11 73.99 11 74.98 11 76 C8.02231809 77.48884096 5.10847018 76.87240888 1.875 76.625 C0.43232842 76.52162122 -1.01038124 76.41877281 -2.453125 76.31640625 C-3.19884766 76.26242676 -3.94457031 76.20844727 -4.71289062 76.15283203 C-6.99029544 76.00064849 -9.26688394 75.88326382 -11.546875 75.77734375 C-12.27245605 75.74108887 -12.99803711 75.70483398 -13.74560547 75.66748047 C-15.78592077 75.56689166 -17.82655091 75.47275157 -19.8671875 75.37890625 C-23 75 -23 75 -25 73 C-22.27893306 70.27893306 -20.15223689 70.39344428 -16.375 69.875 C-15.18648437 69.70742187 -13.99796875 69.53984375 -12.7734375 69.3671875 C-11.85820313 69.24601562 -10.94296875 69.12484375 -10 69 C-9.80664062 68.18015625 -9.61328125 67.3603125 -9.4140625 66.515625 C-9.15367188 65.43796875 -8.89328125 64.3603125 -8.625 63.25 C-8.24214844 61.64898437 -8.24214844 61.64898437 -7.8515625 60.015625 C-7.12466459 57.44147278 -6.2973776 55.32399814 -5 53 C-3.68 53 -2.36 53 -1 53 C-0.78894508 43.10386916 -0.89915262 33.7351767 -3 24 C-3.78375 23.855625 -4.5675 23.71125 -5.375 23.5625 C-8 23 -8 23 -10 22 C-10 21.01 -10 20.02 -10 19 C-16.21523336 22.2271404 -20.08410073 25.43922663 -23 32 C-23.66 31.67 -24.32 31.34 -25 31 C-24.44287844 26.40374717 -22.761873 22.67946896 -20 19 C-17.25 17.0625 -17.25 17.0625 -15 16 C-18.55780196 16.60990891 -21.6828589 17.5783681 -25 19 C-24.8125 17.1875 -24.8125 17.1875 -24 15 C-20.49968887 12.29975999 -17.35019062 11.50583612 -13 11 C-15.64 10.67 -18.28 10.34 -21 10 C-21 9.01 -21 8.02 -21 7 C-17.10885099 5.98088955 -15.39403493 5.83217031 -11.625 7.4375 C-10.75875 7.953125 -9.8925 8.46875 -9 9 C-8.60167969 8.43410156 -8.20335938 7.86820312 -7.79296875 7.28515625 C-6.99826172 6.18494141 -6.99826172 6.18494141 -6.1875 5.0625 C-5.66542969 4.33160156 -5.14335938 3.60070312 -4.60546875 2.84765625 C-3 1 -3 1 0 0 Z M5 14 C4.34 14.66 3.68 15.32 3 16 C3.763125 16.37125 4.52625 16.7425 5.3125 17.125 C8.52043115 19.3630915 9.4977816 21.44211433 11 25 C10.57589844 24.59007812 10.15179688 24.18015625 9.71484375 23.7578125 C5.59090098 19.96922332 2.49246223 18.12091066 -3 17 C-3.35519851 21.26238212 -2.5352227 22.68470877 0 26 C2.45295191 32.78590347 2.40059734 39.46399131 2.56640625 46.61328125 C2.59605469 47.51949219 2.62570313 48.42570312 2.65625 49.359375 C2.67494141 50.17889648 2.69363281 50.99841797 2.71289062 51.84277344 C2.87808494 54.29388127 2.87808494 54.29388127 5 57 C5.99 57 6.98 57 8 57 C9.64046236 49.75706573 11.10549433 42.49118398 12.5 35.19726562 C13.3835708 30.68622252 14.25793951 26.27412516 16 22 C18.125 20.625 18.125 20.625 20 20 C17.60156648 17.17412288 15.47839022 16.29810862 11.9375 15.3125 C11.05964844 15.06113281 10.18179688 14.80976562 9.27734375 14.55078125 C7.06650779 13.92164163 7.06650779 13.92164163 5 14 Z M34 24 C33.34 25.32 32.68 26.64 32 28 C30.54257537 28.08096803 29.08387193 28.13917774 27.625 28.1875 C26.81289062 28.22230469 26.00078125 28.25710937 25.1640625 28.29296875 C24.44992188 28.19628906 23.73578125 28.09960938 23 28 C22.34 27.01 21.68 26.02 21 25 C20.01 25 19.02 25 18 25 C17.15771542 28.56044445 16.32776097 32.12365344 15.5 35.6875 C15.26152344 36.69490234 15.02304688 37.70230469 14.77734375 38.74023438 C14.55175781 39.71669922 14.32617188 40.69316406 14.09375 41.69921875 C13.88427734 42.59471436 13.67480469 43.49020996 13.45898438 44.4128418 C13.00005488 46.99969065 12.91738029 49.37888974 13 52 C14.093125 52.0825 15.18625 52.165 16.3125 52.25 C20 53 20 53 21.9375 55.0625 C22.288125 55.701875 22.63875 56.34125 23 57 C24.98 56.505 24.98 56.505 27 56 C27.33 54.68 27.66 53.36 28 52 C29.98 52 31.96 52 34 52 C34.25652344 51.15695313 34.51304687 50.31390625 34.77734375 49.4453125 C37.81735657 40.7449391 37.81735657 40.7449391 41.1953125 38.6171875 C43.63775722 37.98037848 45.49242651 37.70994486 48 38 C50.5625 39.875 50.5625 39.875 52 42 C55.6309737 40.78967543 56.86386841 40.20419738 59 37 C59.09266762 33.26603997 58.70884056 29.6653721 58 26 C56.95137906 24.74843946 56.95137906 24.74843946 54.625 24.6875 C53.325625 24.8421875 53.325625 24.8421875 52 25 C51.566875 25.66 51.13375 26.32 50.6875 27 C49 29 49 29 47.0390625 29.265625 C45.02414499 29.25148523 43.01064894 29.13184583 41 29 C40.34 27.35 39.68 25.7 39 24 C37.35 24 35.7 24 34 24 Z M-3 57 C-3.33 58.65 -3.66 60.3 -4 62 C-3.34 61.34 -2.68 60.68 -2 60 C-2.33 59.01 -2.66 58.02 -3 57 Z " fill="#FEFEFE" transform="translate(124,62)"/>
<path d="M0 0 C1.25200195 -0.0309375 1.25200195 -0.0309375 2.52929688 -0.0625 C8.35845809 -0.09884707 12.63661983 0.78133788 17.9375 3.25 C21.10324869 6.57809477 22.80927119 8.91642039 23.25 13.5 C22.86568998 18.11172029 21.21157436 20.97592564 17.9375 24.25 C18.43121094 24.63671875 18.92492187 25.0234375 19.43359375 25.421875 C20.07425781 25.94265625 20.71492188 26.4634375 21.375 27 C22.33212891 27.76570313 22.33212891 27.76570313 23.30859375 28.546875 C26.43182582 31.8124126 26.22566105 35.84381736 26.15234375 40.2265625 C25.68002442 44.6749518 23.74152542 47.48829171 20.5625 50.5 C16.18505163 53.41829892 12.67507535 54.50405112 7.41796875 54.4453125 C5.8855957 54.43564453 5.8855957 54.43564453 4.32226562 54.42578125 C3.26716797 54.40902344 2.21207031 54.39226562 1.125 54.375 C0.05056641 54.36597656 -1.02386719 54.35695312 -2.13085938 54.34765625 C-4.77496854 54.32415306 -7.41861872 54.29129575 -10.0625 54.25 C-10.08776648 46.72030348 -10.10533141 39.1906178 -10.11743164 31.66088867 C-10.1224737 29.09708243 -10.12930714 26.53327909 -10.13793945 23.96948242 C-10.15001064 20.29344979 -10.15572942 16.61745502 -10.16015625 12.94140625 C-10.16531754 11.78725723 -10.17047882 10.63310822 -10.17579651 9.44398499 C-10.17587204 8.38296066 -10.17594757 7.32193634 -10.17602539 6.22875977 C-10.178246 5.28944107 -10.18046661 4.35012238 -10.18275452 3.38233948 C-9.89182764 -1.776343 -3.96276923 0.02371141 0 0 Z M-0.0625 9.25 C-0.0625 13.21 -0.0625 17.17 -0.0625 21.25 C5.80167715 21.75044283 5.80167715 21.75044283 10.9375 19.25 C11.5975 18.59 12.2575 17.93 12.9375 17.25 C12.49046014 12.77116304 12.49046014 12.77116304 9.9375 9.25 C7.49737051 9.00712511 7.49737051 9.00712511 4.8125 9.125 C3.20375 9.16625 1.595 9.2075 -0.0625 9.25 Z M-0.0625 29.25 C-0.08934679 31.89590014 -0.10926357 34.54153096 -0.125 37.1875 C-0.13337891 37.94224609 -0.14175781 38.69699219 -0.15039062 39.47460938 C-0.15902441 41.39994313 -0.11474333 43.32535581 -0.0625 45.25 C0.2675 45.58 0.5975 45.91 0.9375 46.25 C2.73106554 46.23831553 4.52443086 46.14079285 6.3125 46 C7.28960937 45.93296875 8.26671875 45.8659375 9.2734375 45.796875 C12.21780705 45.19245896 13.1802781 44.64256923 14.9375 42.25 C16.15893743 37.92799062 16.1317299 35.19961382 13.9375 31.25 C10.51655758 28.96937172 9.25562778 29.03074993 5.25 29.125 C4.25613281 29.14304688 3.26226562 29.16109375 2.23828125 29.1796875 C1.47902344 29.20289063 0.71976563 29.22609375 -0.0625 29.25 Z " fill="#FDBA12" transform="translate(91.0625,150.75)"/>
<path d="M0 0 C0.80616866 -0.00085442 1.61233733 -0.00170885 2.44293535 -0.00258917 C5.15919388 -0.00424353 7.8753914 0.0012767 10.59164429 0.00672913 C12.5328013 0.00701103 14.47395841 0.0068532 16.41511536 0.00628662 C21.69789557 0.00599878 26.98065325 0.0118933 32.26342821 0.01886058 C37.77943846 0.02509639 43.29544918 0.0256981 48.8114624 0.02688599 C59.26265275 0.02999863 69.71383268 0.03821112 80.16501844 0.04823548 C92.06084676 0.05939869 103.95667557 0.06490759 115.85250783 0.06993091 C140.32854738 0.08039378 164.80457767 0.09799193 189.28060913 0.12025452 C189.28060913 1.77025452 189.28060913 3.42025452 189.28060913 5.12025452 C123.61060913 5.12025452 57.94060913 5.12025452 -9.71939087 5.12025452 C-9.71939087 3.80025452 -9.71939087 2.48025452 -9.71939087 1.12025452 C-6.63302398 -0.42292893 -3.38644867 -0.0129674 0 0 Z " fill="#F7B517" transform="translate(89.71939086914063,217.87974548339844)"/>
<path d="M0 0 C2.97 0 5.94 0 9 0 C10.06122053 8.41396276 10.15363424 16.76073071 10.13037109 25.22583008 C10.12493962 27.58876754 10.13038185 29.9515209 10.13671875 32.31445312 C10.13605916 33.81510459 10.13478048 35.31575593 10.1328125 36.81640625 C10.13483673 37.52358292 10.13686096 38.23075958 10.13894653 38.95936584 C10.1149991 43.8850009 10.1149991 43.8850009 9 45 C7.52245384 45.07228699 6.04166002 45.0837999 4.5625 45.0625 C3.75941406 45.05347656 2.95632812 45.04445312 2.12890625 45.03515625 C1.42636719 45.02355469 0.72382813 45.01195312 0 45 C-2.0745356 44.8509288 -2.0745356 44.8509288 -4 46 C-14.29349286 47.17736029 -14.29349286 47.17736029 -18.5 43.9375 C-23.12669577 38.50113247 -24.57338698 33.51959311 -24.359375 26.5 C-23.58992338 21.14729305 -21.0938227 16.53698032 -17 13 C-14.27182878 12.09060959 -12.45290223 11.80790926 -9.625 11.75 C-8.49964844 11.71132812 -8.49964844 11.71132812 -7.3515625 11.671875 C-5 12 -5 12 0 15 C0 10.05 0 5.1 0 0 Z M-14 23 C-15.14020073 27.71282969 -15.44630676 29.85235406 -13.6875 34.375 C-12.11285325 37.02876651 -12.11285325 37.02876651 -10 39 C-5.14320811 38.90055486 -5.14320811 38.90055486 -1.30859375 36.25390625 C0.96576149 32.33658395 0.75774752 28.38360482 0 24 C-2.30661944 20.70482938 -3.6243055 19.30198172 -7.5625 18.4375 C-10.92752988 19.21404536 -12.0142318 20.16318828 -14 23 Z " fill="#FBAD17" transform="translate(201,158)"/>
<path d="M0 0 C4.35016037 2.25873712 7.30530306 4.90805279 10 9 C12.32139821 16.35109433 10.83543974 22.84611006 7.8125 29.6875 C5.37659993 32.7953725 2.79597976 34.1928089 -1 35 C-5.70737063 35.05473687 -9.04902565 34.6339829 -13 32 C-13 36.29 -13 40.58 -13 45 C-16.3 45 -19.6 45 -23 45 C-23 30.48 -23 15.96 -23 1 C-20.03 1 -17.06 1 -14 1 C-13.67 1.66 -13.34 2.32 -13 3 C-12.34 2.505 -11.68 2.01 -11 1.5 C-7.25792214 -0.37103893 -4.07015931 -0.71967453 0 0 Z M-10.625 8.5 C-13.26344731 11.27731295 -13.82269438 13.16567189 -14.078125 16.96875 C-13.91942192 21.09503021 -12.90909776 24.09090224 -10 27 C-6.25131724 27.41652031 -3.88266999 27.4979164 -0.5625 25.625 C1.82576739 21.61271078 1.62855875 17.56070533 1 13 C-0.05451534 10.38881917 -0.55652182 9.28611495 -2.9375 7.75 C-6.18081205 6.5706138 -7.62908221 6.78804698 -10.625 8.5 Z " fill="#2EC8F6" transform="translate(269,171)"/>
<path d="M0 0 C3 0.125 3 0.125 4 1.125 C4.12230817 3.44184999 4.17983281 5.76216365 4.2109375 8.08203125 C4.23901447 9.51889144 4.26767899 10.95574024 4.296875 12.39257812 C4.33809436 14.66381412 4.37496908 16.93483953 4.40136719 19.20629883 C4.42902059 21.39449349 4.47489986 23.5817134 4.5234375 25.76953125 C4.54325684 27.08284424 4.56307617 28.39615723 4.58349609 29.74926758 C5.01423275 33.24035539 5.52336999 34.68294706 8 37.125 C9.94056541 37.67938371 9.94056541 37.67938371 12 37.5 C12.680625 37.48710937 13.36125 37.47421875 14.0625 37.4609375 C16.31939935 37.20413353 16.31939935 37.20413353 19 35.125 C20.1629731 31.63608069 20.19393666 28.76563749 20.28125 25.0859375 C20.29965942 24.40447662 20.31806885 23.72301575 20.33703613 23.02090454 C20.41566686 20.10751914 20.48366731 17.19391019 20.55224609 14.28027344 C20.60384523 12.15287399 20.66112146 10.02568075 20.71875 7.8984375 C20.74904297 6.62403809 20.77933594 5.34963867 20.81054688 4.03662109 C21 1.125 21 1.125 22 0.125 C25 0 25 0 28 0.125 C29.97939766 2.10439766 29.21129916 5.95914756 29.23828125 8.66796875 C29.246353 9.42918533 29.25442474 10.19040192 29.26274109 10.97468567 C29.27660085 12.59125479 29.28731451 14.20785342 29.29516602 15.82446289 C29.31231011 18.28524361 29.35616777 20.74465662 29.40039062 23.20507812 C29.41052348 24.77603179 29.41903773 26.34699688 29.42578125 27.91796875 C29.44328934 28.64944626 29.46079742 29.38092377 29.47883606 30.13456726 C29.45722473 35.28368157 28.24404294 38.16394287 25 42.125 C19.67647018 45.98455912 14.51855047 46.80731556 8 46.125 C3.36935981 44.58145327 0.09707508 42.93678471 -3 39.125 C-4.22699775 35.44400675 -4.14319812 32.04333308 -4.1328125 28.2109375 C-4.13376923 27.44069244 -4.13472595 26.67044739 -4.13571167 25.87686157 C-4.13639151 24.25124022 -4.13455088 22.62561613 -4.13037109 21 C-4.12500546 18.50254279 -4.13033015 16.00526423 -4.13671875 13.5078125 C-4.13605822 11.9296871 -4.13477758 10.35156181 -4.1328125 8.7734375 C-4.13483673 8.02242767 -4.13686096 7.27141785 -4.13894653 6.49765015 C-4.11008582 0.17125358 -4.11008582 0.17125358 0 0 Z " fill="#30C7F4" transform="translate(216,159.875)"/>
<path d="M0 0 C1.23556641 0.01740234 1.23556641 0.01740234 2.49609375 0.03515625 C3.32238281 0.04417969 4.14867188 0.05320313 5 0.0625 C5.63808594 0.07410156 6.27617188 0.08570313 6.93359375 0.09765625 C6.94817627 0.74839111 6.96275879 1.39912598 6.9777832 2.06958008 C7.05223924 5.01703931 7.14890641 7.96336267 7.24609375 10.91015625 C7.26865234 11.93431641 7.29121094 12.95847656 7.31445312 14.01367188 C7.34990234 14.99658203 7.38535156 15.97949219 7.421875 16.9921875 C7.44805908 17.89815674 7.47424316 18.80412598 7.5012207 19.73754883 C8.00874506 22.50786955 8.66531714 23.46336788 10.93359375 25.09765625 C13.52476688 25.09609401 13.52476688 25.09609401 15.93359375 24.09765625 C18.05639938 20.9134478 18.21378912 19.8922837 18.34765625 16.2109375 C18.38632813 15.27314453 18.425 14.33535156 18.46484375 13.36914062 C18.51125 11.90444336 18.51125 11.90444336 18.55859375 10.41015625 C18.59726563 9.42208984 18.6359375 8.43402344 18.67578125 7.41601562 C18.77004774 4.97687015 18.85290965 2.53728878 18.93359375 0.09765625 C21.90359375 0.09765625 24.87359375 0.09765625 27.93359375 0.09765625 C27.93359375 10.65765625 27.93359375 21.21765625 27.93359375 32.09765625 C24.96359375 32.09765625 21.99359375 32.09765625 18.93359375 32.09765625 C18.60359375 31.43765625 18.27359375 30.77765625 17.93359375 30.09765625 C17.37542969 30.58363281 16.81726563 31.06960937 16.2421875 31.5703125 C12.37299561 34.13013319 8.41270344 33.74375149 3.93359375 33.09765625 C0.63028746 31.30836534 -0.63092786 30.05265273 -2.1796875 26.65625 C-3.42139785 21.67299835 -3.31687513 16.8988923 -3.25390625 11.78515625 C-3.25326172 10.77130859 -3.25261719 9.75746094 -3.25195312 8.71289062 C-3.2003424 0.15124491 -3.2003424 0.15124491 0 0 Z " fill="#FBAA18" transform="translate(121.06640625,170.90234375)"/>
<path d="M0 0 C2.97 0 5.94 0 9 0 C9 14.85 9 29.7 9 45 C5.7 45 2.4 45 -1 45 C-1.02464455 38.75203746 -1.04283343 32.50410297 -1.05493164 26.25610352 C-1.05997298 24.12881986 -1.06680591 22.00153969 -1.07543945 19.87426758 C-1.08751379 16.82372174 -1.09323014 13.77322155 -1.09765625 10.72265625 C-1.10281754 9.76537125 -1.10797882 8.80808624 -1.11329651 7.8217926 C-1.11337204 6.94095505 -1.11344757 6.06011749 -1.11352539 5.15258789 C-1.115746 4.37315323 -1.11796661 3.59371857 -1.12025452 2.79066467 C-1 1 -1 1 0 0 Z " fill="#FBAA15" transform="translate(166,158)"/>
<path d="M0 0 C2.97 0 5.94 0 9 0 C9 10.56 9 21.12 9 32 C6.03 32 3.06 32 0 32 C-1.02632282 27.78067286 -1.15375887 23.69293901 -1.125 19.375 C-1.12306641 18.67439453 -1.12113281 17.97378906 -1.11914062 17.25195312 C-1.07149852 11.46608394 -0.68187443 5.7472273 0 0 Z " fill="#FBA917" transform="translate(153,171)"/>
<path d="M0 0 C2.5625 2 2.5625 2 4 4 C2.9375 5.5625 2.9375 5.5625 1 7 C-1.33944736 6.71269945 -3.6739143 6.38063221 -6 6 C-8.41121859 7.95633975 -8.41121859 7.95633975 -8.125 11.625 C-8.08375 12.73875 -8.0425 13.8525 -8 15 C-5.69 15 -3.38 15 -1 15 C-1 14.34 -1 13.68 -1 13 C-2.32 12.67 -3.64 12.34 -5 12 C-5 11.01 -5 10.02 -5 9 C-1.7 9 1.6 9 5 9 C5 12.96 5 16.92 5 21 C3.68 20.67 2.36 20.34 1 20 C0.67 20.33 0.34 20.66 0 21 C-4.65817872 21.67370353 -7.99533283 21.64884755 -12 19.0625 C-14.60563393 15.07262305 -15.45131801 11.75555456 -15 7 C-11.36151468 -0.02604062 -7.54364759 -1.03172445 0 0 Z " fill="#FEFEFE" transform="translate(226,229)"/>
<path d="M0 0 C3.63946908 2.50213499 4.74875408 4.15204503 6 8.375 C6 12.69434556 5.12898317 15.25592614 3 19 C0.10629989 21.46500379 -3.30074196 21.41469749 -7.03125 21.32421875 C-10.17832363 20.80595067 -11.85759665 19.27224598 -14 17 C-15.23671367 13.28985899 -15.56368603 9.85561242 -15 6 C-11.07622572 -0.14724638 -6.99162602 -1.05055521 0 0 Z M-8.1875 7 C-8.785625 7.66 -9.38375 8.32 -10 9 C-9.34 10.98 -8.68 12.96 -8 15 C-5.65466049 15.76956136 -5.65466049 15.76956136 -3 16 C-1.06345052 14.98029682 -1.06345052 14.98029682 0 13 C0.44413964 10.03906909 0.46030193 8.63565504 -1.3125 6.1875 C-4.26777596 4.10786136 -5.62359333 4.65585676 -8.1875 7 Z " fill="#FFFFFF" transform="translate(251,229)"/>
<path d="M0 0 C9.78935379 -0.61719218 9.78935379 -0.61719218 14.1875 1.625 C16.52423676 4.68693093 16.46287044 6.21989142 16 10 C15.79375 10.825 15.5875 11.65 15.375 12.5 C14.88384975 15.77433501 15.79859964 17.96116378 17 21 C15.02 21 13.04 21 11 21 C10.319375 19.5459375 10.319375 19.5459375 9.625 18.0625 C8.34213779 14.92920418 8.34213779 14.92920418 6 14 C6 15.98 6 17.96 6 20 C4.34385343 20.38218767 2.67542976 20.71395102 1 21 C0 20 0 20 -0.11352539 18.05053711 C-0.10567017 16.8015564 -0.10567017 16.8015564 -0.09765625 15.52734375 C-0.09443359 14.62822266 -0.09121094 13.72910156 -0.08789062 12.80273438 C-0.07951172 11.85720703 -0.07113281 10.91167969 -0.0625 9.9375 C-0.05798828 8.98810547 -0.05347656 8.03871094 -0.04882812 7.06054688 C-0.0370011 4.70696935 -0.02052025 2.35351523 0 0 Z M6 5 C6 6.32 6 7.64 6 9 C7.32 9 8.64 9 10 9 C9.67 7.68 9.34 6.36 9 5 C8.01 5 7.02 5 6 5 Z " fill="#FEFFFE" transform="translate(168,229)"/>
<path d="M0 0 C10.06206497 -0.3636891 10.06206497 -0.3636891 14.0625 1.1875 C16.4775842 3.44677232 17.27900152 4.75550686 18 8 C18.06649373 12.17248168 17.70283169 15.08631881 15.125 18.4375 C10.0455984 22.17235412 7.06570952 21 0 21 C0 14.07 0 7.14 0 0 Z M6 5 C4.76732652 6.00836062 4.76732652 6.00836062 4.90234375 8.06640625 C4.91394531 8.89011719 4.92554688 9.71382812 4.9375 10.5625 C4.94652344 11.38878906 4.95554687 12.21507812 4.96484375 13.06640625 C4.97644531 13.70449219 4.98804688 14.34257812 5 15 C5.99 15.33 6.98 15.66 8 16 C10.16641665 14.33454661 10.16641665 14.33454661 12 12 C12.25153259 9.34095531 12.25153259 9.34095531 11 7 C8.52363988 5.62533375 8.52363988 5.62533375 6 5 Z " fill="#FFFFFF" transform="translate(262,229)"/>
<path d="M0 0 C2.4375 1.375 2.4375 1.375 4 3 C4 3.99 4 4.98 4 6 C6.31 6.66 8.62 7.32 11 8 C9.68 8.33 8.36 8.66 7 9 C8.00513041 11.93163037 8.92417198 13.91469348 11 16.25 C13.68261756 19.93859915 14.2649549 23.56071445 15 28 C13.68 28.33 12.36 28.66 11 29 C10.34 25.04 9.68 21.08 9 17 C7.35 16.67 5.7 16.34 4 16 C3.34 15.67 2.68 15.34 2 15 C2 14.01 2 13.02 2 12 C-4.21523336 15.2271404 -8.08410073 18.43922663 -11 25 C-11.66 24.67 -12.32 24.34 -13 24 C-12.44287844 19.40374717 -10.761873 15.67946896 -8 12 C-5.25 10.0625 -5.25 10.0625 -3 9 C-6.55780196 9.60990891 -9.6828589 10.5783681 -13 12 C-12.8125 10.1875 -12.8125 10.1875 -12 8 C-8.49968887 5.29975999 -5.35019062 4.50583612 -1 4 C-3.64 3.67 -6.28 3.34 -9 3 C-9 2.01 -9 1.02 -9 0 C-5.84876177 -1.57561912 -3.37430208 -0.69813146 0 0 Z " fill="#FAFAF6" transform="translate(112,69)"/>
<path d="M0 0 C1.65 0 3.3 0 5 0 C5.66 1.98 6.32 3.96 7 6 C7.53625 5.01 8.0725 4.02 8.625 3 C9.40875 2.01 10.1925 1.02 11 0 C14.25 -0.375 14.25 -0.375 17 0 C16.00928652 2.74351424 15.18493476 4.78864599 13.25 7 C12.8375 7.66 12.425 8.32 12 9 C12.72520266 11.90081063 13.81341497 13.7560042 15.625 16.125 C17 18 17 18 17 21 C14.25 21.375 14.25 21.375 11 21 C8.625 18 8.625 18 7 15 C6.34 16.98 5.68 18.96 5 21 C3.35 21 1.7 21 0 21 C0 14.07 0 7.14 0 0 Z " fill="#FEFEFE" transform="translate(80,229)"/>
<path d="M0 0 C2.875 -0.125 2.875 -0.125 6 0 C8.70353012 2.70353012 9.46754496 5.82188219 10.625 9.375 C10.85445312 10.04789063 11.08390625 10.72078125 11.3203125 11.4140625 C12.44631186 14.81887008 13 17.37395155 13 21 C11.35 21 9.7 21 8 21 C7.67 19.68 7.34 18.36 7 17 C4.69 17 2.38 17 0 17 C-0.66 18.32 -1.32 19.64 -2 21 C-3.65 20.67 -5.3 20.34 -7 20 C-6.02327683 17.04085422 -5.04320621 14.08282789 -4.0625 11.125 C-3.78470703 10.28324219 -3.50691406 9.44148437 -3.22070312 8.57421875 C-2.95322266 7.76855469 -2.68574219 6.96289062 -2.41015625 6.1328125 C-2.16402588 5.38918457 -1.91789551 4.64555664 -1.66430664 3.87939453 C-1 2 -1 2 0 0 Z M3 7 C1.70366379 8.06645115 1.70366379 8.06645115 1.9375 10.5625 C1.958125 11.366875 1.97875 12.17125 2 13 C2.99 13 3.98 13 5 13 C4.67 11.02 4.34 9.04 4 7 C3.67 7 3.34 7 3 7 Z " fill="#FEFEFE" transform="translate(195,229)"/>
<path d="M0 0 C1.4540625 0.0309375 1.4540625 0.0309375 2.9375 0.0625 C3.91938561 2.64482914 4.89809589 5.22828683 5.875 7.8125 C6.15279297 8.54210937 6.43058594 9.27171875 6.71679688 10.0234375 C6.98427734 10.73242188 7.25175781 11.44140625 7.52734375 12.171875 C7.77347412 12.82124023 8.01960449 13.47060547 8.27319336 14.13964844 C8.95303074 16.10745409 9.54466991 18.0168188 9.9375 20.0625 C8.9375 21.0625 8.9375 21.0625 6.375 21.125 C5.570625 21.104375 4.76625 21.08375 3.9375 21.0625 C3.6075 20.0725 3.2775 19.0825 2.9375 18.0625 C0.6275 17.7325 -1.6825 17.4025 -4.0625 17.0625 C-4.3925 18.3825 -4.7225 19.7025 -5.0625 21.0625 C-6.7125 21.0625 -8.3625 21.0625 -10.0625 21.0625 C-9.61344893 14.62610136 -7.49525517 0.15296439 0 0 Z M-1.0625 7.0625 C-1.3925 9.0425 -1.7225 11.0225 -2.0625 13.0625 C-0.7425 12.7325 0.5775 12.4025 1.9375 12.0625 C1.2775 10.4125 0.6175 8.7625 -0.0625 7.0625 C-0.3925 7.0625 -0.7225 7.0625 -1.0625 7.0625 Z " fill="#FFFFFE" transform="translate(154.0625,228.9375)"/>
<path d="M0 0 C1.4540625 0.0309375 1.4540625 0.0309375 2.9375 0.0625 C3.91938561 2.64482914 4.89809589 5.22828683 5.875 7.8125 C6.15279297 8.54210937 6.43058594 9.27171875 6.71679688 10.0234375 C6.98427734 10.73242188 7.25175781 11.44140625 7.52734375 12.171875 C7.77347412 12.82124023 8.01960449 13.47060547 8.27319336 14.13964844 C8.94875435 16.095076 9.46550046 18.04915757 9.9375 20.0625 C8.2875 20.3925 6.6375 20.7225 4.9375 21.0625 C4.2775 20.0725 3.6175 19.0825 2.9375 18.0625 C-0.63019552 17.32643501 -0.63019552 17.32643501 -4.0625 17.0625 C-4.3925 18.3825 -4.7225 19.7025 -5.0625 21.0625 C-6.7125 21.0625 -8.3625 21.0625 -10.0625 21.0625 C-9.42841429 16.37170682 -8.17720488 12.19513233 -6.5625 7.75 C-5.89734375 5.89955078 -5.89734375 5.89955078 -5.21875 4.01171875 C-3.67535049 0.07500715 -3.67535049 0.07500715 0 0 Z M-1.0625 7.0625 C-1.3925 9.0425 -1.7225 11.0225 -2.0625 13.0625 C-1.0725 13.0625 -0.0825 13.0625 0.9375 13.0625 C0.9375 11.4125 0.9375 9.7625 0.9375 8.0625 C0.2775 7.7325 -0.3825 7.4025 -1.0625 7.0625 Z " fill="#FFFEFE" transform="translate(111.0625,228.9375)"/>
<path d="M0 0 C2.5 1.5 2.5 1.5 4 3 C3.67 3.99 3.34 4.98 3 6 C0.36 5.67 -2.28 5.34 -5 5 C-3.38371879 8.23256243 -0.23006285 8.67336704 3 10 C4 11 4 11 4.3125 14.375 C4 18 4 18 2.5 19.9375 C-1.04058728 21.4422496 -4.21353725 21.73711877 -8 21 C-10.5 19 -10.5 19 -12 17 C-11.01 15.515 -11.01 15.515 -10 14 C-5.545 14.99 -5.545 14.99 -1 16 C-1 15.34 -1 14.68 -1 14 C-2.093125 13.731875 -3.18625 13.46375 -4.3125 13.1875 C-9.46501129 11.5282167 -9.46501129 11.5282167 -11 9 C-11.38601984 5.91184125 -11.47901666 3.89815624 -10 1.125 C-6.80507218 -0.6721469 -3.5286159 -0.5537868 0 0 Z " fill="#FFFFFF" transform="translate(136,229)"/>
<path d="M0 0 C2.35414174 0.92997584 3.89356398 2.08273006 5.796875 3.74609375 C6.41046875 4.27074219 7.0240625 4.79539063 7.65625 5.3359375 C9.046875 6.80859375 9.046875 6.80859375 9.046875 8.80859375 C9.706875 8.80859375 10.366875 8.80859375 11.046875 8.80859375 C11.046875 9.46859375 11.046875 10.12859375 11.046875 10.80859375 C11.706875 10.80859375 12.366875 10.80859375 13.046875 10.80859375 C13.376875 11.79859375 13.706875 12.78859375 14.046875 13.80859375 C10.94498212 14.23434375 8.13042542 14.42220997 5.046875 13.80859375 C2.80601456 11.76726198 1.41261791 9.49890139 0.046875 6.80859375 C-0.48421875 7.21851563 -1.0153125 7.6284375 -1.5625 8.05078125 C-2.62210938 8.85902344 -2.62210938 8.85902344 -3.703125 9.68359375 C-4.39921875 10.21726563 -5.0953125 10.7509375 -5.8125 11.30078125 C-9.67070742 14.01842371 -12.19356398 15.07301381 -16.953125 14.80859375 C-15.4145342 11.00123346 -13.07477784 8.8698983 -10.015625 6.18359375 C-9.14035156 5.40757812 -8.26507813 4.6315625 -7.36328125 3.83203125 C-2.50631222 -0.2456186 -2.50631222 -0.2456186 0 0 Z " fill="#FDC013" transform="translate(229.953125,144.19140625)"/>
<path d="M0 0 C0.98693848 -0.00064453 1.97387695 -0.00128906 2.99072266 -0.00195312 C9.63677552 0.04631001 15.98717965 0.4591845 22.4375 2.1875 C22.9325 3.6725 22.9325 3.6725 23.4375 5.1875 C12.29106746 8.90297751 -4.09124914 5.95116777 -15.5625 4.1875 C-15.2325 3.1975 -14.9025 2.2075 -14.5625 1.1875 C-10.01685708 -0.55956414 -4.79310726 -0.00318003 0 0 Z " fill="#FEFEFE" transform="translate(245.5625,129.8125)"/>
<path d="M0 0 C2.97 0 5.94 0 9 0 C9 2.64 9 5.28 9 8 C6.03 8 3.06 8 0 8 C0 5.36 0 2.72 0 0 Z " fill="#FCAB18" transform="translate(153,158)"/>
<path d="M0 0 C0.1875 2.375 0.1875 2.375 0 5 C-3.65653827 7.43769218 -5.69000101 7.23944439 -10 7 C-11 6 -11 6 -11.0625 3.4375 C-11.041875 2.633125 -11.02125 1.82875 -11 1 C-7.2297564 -1.56376565 -4.32597804 -0.83191885 0 0 Z M-4 3 C-3 5 -3 5 -3 5 Z " fill="#FDFDFD" transform="translate(214,259)"/>
<path d="M0 0 C1.2065625 0.0309375 1.2065625 0.0309375 2.4375 0.0625 C3.28204356 3.44067425 3.54594919 5.73715243 2.4375 9.0625 C0.4460944 9.44383299 -1.55529077 9.77575582 -3.5625 10.0625 C-3.8925 9.7325 -4.2225 9.4025 -4.5625 9.0625 C-4.4765625 7.25 -4.4765625 7.25 -4.1875 5.0625 C-4.09726563 4.340625 -4.00703125 3.61875 -3.9140625 2.875 C-3.35696187 0.00283676 -2.9903098 0.07293439 0 0 Z " fill="#FCFCFC" transform="translate(143.5625,255.9375)"/>
<path d="M0 0 C2.97 0 5.94 0 9 0 C9.33 0.66 9.66 1.32 10 2 C8.875 4.5625 8.875 4.5625 7 7 C4.4375 7.875 4.4375 7.875 2 8 C1.34 7.67 0.68 7.34 0 7 C0 4.69 0 2.38 0 0 Z " fill="#FBFBFB" transform="translate(245,258)"/>
<path d="M0 0 C3.3 0 6.6 0 10 0 C10 0.99 10 1.98 10 3 C9.34 3 8.68 3 8 3 C7.87625 3.639375 7.7525 4.27875 7.625 4.9375 C7.41875 5.618125 7.2125 6.29875 7 7 C6.01 7.495 6.01 7.495 5 8 C4.67 6.35 4.34 4.7 4 3 C2.515 5.475 2.515 5.475 1 8 C0.01 7.67 -0.98 7.34 -2 7 C-1.34 4.69 -0.68 2.38 0 0 Z " fill="#FEFEFE" transform="translate(225,258)"/>
<path d="M0 0 C2.625 0.375 2.625 0.375 5 1 C5.33 1.99 5.66 2.98 6 4 C4.5625 6.1875 4.5625 6.1875 3 8 C1.35 7.67 -0.3 7.34 -2 7 C-2.125 4.625 -2.125 4.625 -2 2 C-1.34 1.34 -0.68 0.68 0 0 Z " fill="#F6F7F7" transform="translate(150,258)"/>
<path d="M0 0 C1.98 0 3.96 0 6 0 C5.67 2.31 5.34 4.62 5 7 C4.01 7 3.02 7 2 7 C1.67 7.99 1.34 8.98 1 10 C0.01 9.67 -0.98 9.34 -2 9 C-1.34 6.03 -0.68 3.06 0 0 Z " fill="#FEFEFE" transform="translate(101,256)"/>
<path d="M0 0 C0.598125 0.20625 1.19625 0.4125 1.8125 0.625 C2.5 2.4375 2.5 2.4375 2.8125 4.625 C1.6875 6.4375 1.6875 6.4375 -0.1875 7.625 C-2.875 7.3125 -2.875 7.3125 -5.1875 6.625 C-5.375 4.25 -5.375 4.25 -5.1875 1.625 C-2.1875 -0.375 -2.1875 -0.375 0 0 Z " fill="#FDFDFD" transform="translate(220.1875,258.375)"/>
<path d="M0 0 C1.65 0.33 3.3 0.66 5 1 C5.1875 3.375 5.1875 3.375 5 6 C2 8 2 8 -0.125 7.8125 C-0.74375 7.544375 -1.3625 7.27625 -2 7 C-2.33 6.01 -2.66 5.02 -3 4 C-1.5625 1.8125 -1.5625 1.8125 0 0 Z M1 3 C2 5 2 5 2 5 Z " fill="#FEFEFE" transform="translate(197,258)"/>
<path d="M0 0 C0.639375 0.2475 1.27875 0.495 1.9375 0.75 C2.9375 3.75 2.9375 3.75 1.9375 6.75 C-0.4375 7.375 -0.4375 7.375 -3.0625 7.75 C-3.7225 7.09 -4.3825 6.43 -5.0625 5.75 C-4.8125 3.1875 -4.8125 3.1875 -4.0625 0.75 C-2.0625 -0.25 -2.0625 -0.25 0 0 Z " fill="#F4F4F6" transform="translate(173.0625,258.25)"/>
<path d="M0 0 C2.25 0.25 2.25 0.25 4 1 C4.125 3.375 4.125 3.375 4 6 C3.34 6.66 2.68 7.32 2 8 C-0.625 7.625 -0.625 7.625 -3 7 C-3.33 6.01 -3.66 5.02 -4 4 C-2.25 1.9375 -2.25 1.9375 0 0 Z M0 3 C1 5 1 5 1 5 Z " fill="#FDFDFD" transform="translate(239,258)"/>
<path d="M0 0 C1.32 0.33 2.64 0.66 4 1 C4.04254356 2.99954746 4.04080783 5.00041636 4 7 C3 8 3 8 0.4375 8.0625 C-0.366875 8.041875 -1.17125 8.02125 -2 8 C-2.33 7.01 -2.66 6.02 -3 5 C-1.5625 2.3125 -1.5625 2.3125 0 0 Z " fill="#F5F6F6" transform="translate(129,258)"/>
<path d="M0 0 C1.32 0.33 2.64 0.66 4 1 C4.6875 2.8125 4.6875 2.8125 5 5 C3.8125 6.8125 3.8125 6.8125 2 8 C-0.125 7.875 -0.125 7.875 -2 7 C-2.33 6.01 -2.66 5.02 -3 4 C-1.5625 1.8125 -1.5625 1.8125 0 0 Z " fill="#FCFCFC" transform="translate(110,258)"/>
<path d="M0 0 C2.31 0 4.62 0 7 0 C7 0.99 7 1.98 7 3 C6.34 3 5.68 3 5 3 C4.34 5.31 3.68 7.62 3 10 C2.01 9.67 1.02 9.34 0 9 C0.185625 8.2575 0.37125 7.515 0.5625 6.75 C0.99203108 4.05009037 0.85122974 2.55368923 0 0 Z " fill="#FDFDFE" transform="translate(188,256)"/>
<path d="M0 0 C0.99 0.33 1.98 0.66 3 1 C3 3.31 3 5.62 3 8 C1.68 8 0.36 8 -1 8 C-1.04241723 5.66705225 -1.04092937 3.33297433 -1 1 C-0.67 0.67 -0.34 0.34 0 0 Z " fill="#FDFDFD" transform="translate(164,257)"/>
<path d="M0 0 C0.99 0.33 1.98 0.66 3 1 C3 3.31 3 5.62 3 8 C1.68 8 0.36 8 -1 8 C-1.04241723 5.66705225 -1.04092937 3.33297433 -1 1 C-0.67 0.67 -0.34 0.34 0 0 Z " fill="#FDFDFD" transform="translate(158,257)"/>
<path d="M0 0 C0.66 0 1.32 0 2 0 C2.28875 0.94875 2.5775 1.8975 2.875 2.875 C3.76825109 6.05211578 3.76825109 6.05211578 6 8 C3.36 8 0.72 8 -2 8 C-1.67 7.34 -1.34 6.68 -1 6 C-1.33 5.01 -1.66 4.02 -2 3 C-1.34 2.67 -0.68 2.34 0 2 C0 1.34 0 0.68 0 0 Z " fill="#F2F4EF" transform="translate(111,71)"/>
<path d="M0 0 C-0.62759865 2.92879371 -1.58622659 5.36095629 -3 8 C-3.66 8 -4.32 8 -5 8 C-5 5.69 -5 3.38 -5 1 C-3 0 -3 0 0 0 Z " fill="#FDFDFD" transform="translate(121,258)"/>
<path d="M0 0 C2.0625 0.4375 2.0625 0.4375 4 1 C4 1.66 4 2.32 4 3 C3.34 3 2.68 3 2 3 C1.87625 3.639375 1.7525 4.27875 1.625 4.9375 C1.41875 5.618125 1.2125 6.29875 1 7 C0.01 7.495 0.01 7.495 -1 8 C-1.04241723 5.66705225 -1.04092937 3.33297433 -1 1 C-0.67 0.67 -0.34 0.34 0 0 Z " fill="#FEFEFE" transform="translate(178,258)"/>
<path d="M0 0 C0 0.99 0 1.98 0 3 C-0.66 3.66 -1.32 4.32 -2 5 C-0.68 5.66 0.64 6.32 2 7 C-0.64 7.33 -3.28 7.66 -6 8 C-4.55746343 4.63408134 -2.66735273 2.48952921 0 0 Z " fill="#FFCC18" transform="translate(219,151)"/>
<path d="M0 0 C0.66 0 1.32 0 2 0 C2 1.32 2 2.64 2 4 C2.66 4.33 3.32 4.66 4 5 C4 5.66 4 6.32 4 7 C2.68 6.67 1.36 6.34 0 6 C-1.125 2.25 -1.125 2.25 0 0 Z " fill="#FEFEFE" transform="translate(169,259)"/>
</svg>
